<?xml version="1.0" encoding="utf-8"?>
<!-- Generator: Adobe Illustrator 18.1.1, SVG Export Plug-In . SVG Version: 6.00 Build 0)  -->
<!DOCTYPE svg PUBLIC "-//W3C//DTD SVG 1.1//EN" "http://www.w3.org/Graphics/SVG/1.1/DTD/svg11.dtd">
<svg version="1.1" id="Layer_1" xmlns="http://www.w3.org/2000/svg" xmlns:xlink="http://www.w3.org/1999/xlink" x="0px" y="0px"
	 width="16px" height="16px" viewBox="0 0 16 16" enable-background="new 0 0 16 16" xml:space="preserve">
<g>
	<path fill="#94DCFE" d="M0,4.3c0-0.6,0-1.2,0-1.8C0,2,0.2,1.7,0.8,1.7c1.2,0,2.4,0,3.7,0c0.4,0,0.7,0.2,0.8,0.5
		c0.3,0.6,0.8,0.7,1.4,0.7c2.5,0,8.1,0,8.4,0c0.8,0,0.9,0.7,0.9,2c-0.1,0-0.2-0.5-0.2-0.6c-0.2-0.3-0.5-0.4-0.9-0.4
		c-3.4,0-12.5,0-13.7,0c-0.4,0-0.8,0-1.1,0.4C0.1,4.3,0.1,4.3,0,4.3z"/>
	<linearGradient id="SVGID_1_" gradientUnits="userSpaceOnUse" x1="8.0102" y1="14.3286" x2="8.0102" y2="3.7794">
		<stop  offset="0" style="stop-color:#6FCAF1"/>
		<stop  offset="0.2347" style="stop-color:#7FD8FF"/>
		<stop  offset="0.623" style="stop-color:#7DD6FD"/>
		<stop  offset="0.7919" style="stop-color:#76CFF7"/>
		<stop  offset="0.9178" style="stop-color:#69C4EC"/>
		<stop  offset="1" style="stop-color:#5CB8E0"/>
	</linearGradient>
	<path fill="url(#SVGID_1_)" d="M14.9,3.8c-4.6,0-9.1,0-13.7,0C0.7,3.8,0.3,3.9,0,4.3c0,0.2,0,8.3,0,9.5h0c0,0.2,0.2,0.5,0.7,0.5
		c4.9,0,9.7,0,14.6,0c0.6,0,0.7-0.3,0.7-0.6c0-0.5,0-8.2,0-8.4C16,4.2,15.7,3.8,14.9,3.8z"/>
</g>
</svg>
