<?xml version="1.0" encoding="utf-8"?>
<!-- Generator: Adobe Illustrator 18.1.1, SVG Export Plug-In . SVG Version: 6.00 Build 0)  -->
<!DOCTYPE svg PUBLIC "-//W3C//DTD SVG 1.1//EN" "http://www.w3.org/Graphics/SVG/1.1/DTD/svg11.dtd">
<svg version="1.1" id="Layer_1" xmlns="http://www.w3.org/2000/svg" xmlns:xlink="http://www.w3.org/1999/xlink" x="0px" y="0px"
	 width="16px" height="16px" viewBox="0 0 16 16" enable-background="new 0 0 16 16" xml:space="preserve">
<g>
	<linearGradient id="SVGID_1_" gradientUnits="userSpaceOnUse" x1="8" y1="15.75" x2="8" y2="0.25">
		<stop  offset="0" style="stop-color:#CCCCCC"/>
		<stop  offset="1" style="stop-color:#FFFFFF"/>
	</linearGradient>
	<polygon fill="url(#SVGID_1_)" points="2.2,15.8 2.2,0.2 9.8,0.2 13.8,4.2 13.8,15.8 	"/>
	<path fill="#AAAAAA" d="M9.7,0.5l3.8,3.8v11.2h-11v-15H9.7 M9.9,0H2v16h12V4.1L9.9,0L9.9,0z"/>
</g>
<g>
	<path fill="#1787FF" d="M5.7,12.7c-0.3,0-0.5,0-0.7-0.1v-0.9c0.2,0.1,0.3,0.1,0.5,0.1c0.2,0,0.4-0.1,0.5-0.2
		c0.1-0.1,0.2-0.4,0.2-0.6V5.1h1.1v5.7c0,0.4-0.1,0.7-0.2,1c-0.1,0.3-0.3,0.5-0.5,0.6C6.2,12.6,6,12.7,5.7,12.7z"/>
	<path fill="#1787FF" d="M10.9,9.4c0,0.5-0.1,1-0.4,1.3s-0.7,0.4-1.2,0.4c-0.5,0-0.9-0.1-1.3-0.3V9.7c0.4,0.3,0.8,0.4,1.2,0.4
		c0.2,0,0.4-0.1,0.5-0.2s0.2-0.3,0.2-0.5c0-0.2-0.1-0.4-0.2-0.5C9.5,8.8,9.3,8.6,9,8.4C8.8,8.2,8.6,8.1,8.5,7.9
		C8.3,7.7,8.2,7.6,8.2,7.4C8.1,7.2,8,6.9,8,6.7c0-0.5,0.1-0.9,0.4-1.2C8.7,5.2,9.1,5,9.6,5c0.4,0,0.9,0.1,1.3,0.4l-0.4,0.9
		c-0.1-0.1-0.3-0.1-0.4-0.2C10,6,9.8,6,9.7,6C9.5,6,9.4,6.1,9.3,6.2C9.2,6.3,9.1,6.5,9.1,6.7c0,0.2,0.1,0.4,0.2,0.5s0.3,0.3,0.6,0.5
		c0.4,0.3,0.6,0.5,0.8,0.8C10.8,8.7,10.9,9,10.9,9.4z"/>
</g>
</svg>
