<?xml version="1.0" encoding="utf-8"?>
<!-- Generator: Adobe Illustrator 18.1.1, SVG Export Plug-In . SVG Version: 6.00 Build 0)  -->
<!DOCTYPE svg PUBLIC "-//W3C//DTD SVG 1.1//EN" "http://www.w3.org/Graphics/SVG/1.1/DTD/svg11.dtd">
<svg version="1.1" id="Layer_1" xmlns="http://www.w3.org/2000/svg" xmlns:xlink="http://www.w3.org/1999/xlink" x="0px" y="0px"
	 width="16px" height="16px" viewBox="0 0 16 16" enable-background="new 0 0 16 16" xml:space="preserve">
<g>
	<linearGradient id="SVGID_1_" gradientUnits="userSpaceOnUse" x1="8" y1="11.5932" x2="8" y2="4.4068">
		<stop  offset="0" style="stop-color:#999999"/>
		<stop  offset="1" style="stop-color:#E6E6E6"/>
	</linearGradient>
	<path fill="url(#SVGID_1_)" d="M7.3,10.6v0.9c0,0-0.1,0-0.1,0h1.6c0,0-0.1,0-0.1,0v-0.9c1.4-0.3,2.5-1.6,2.5-3.1
		c0-1.7-1.4-3.2-3.2-3.2S4.8,5.8,4.8,7.6C4.8,9.1,5.9,10.3,7.3,10.6z M8,5.8c1,0,1.8,0.8,1.8,1.8c0,1-0.8,1.8-1.8,1.8
		S6.2,8.5,6.2,7.6C6.2,6.6,7,5.8,8,5.8z"/>
	<linearGradient id="SVGID_2_" gradientUnits="userSpaceOnUse" x1="8" y1="11.5932" x2="8" y2="4.4068">
		<stop  offset="0" style="stop-color:#999999"/>
		<stop  offset="1" style="stop-color:#666666"/>
	</linearGradient>
	<path fill="url(#SVGID_2_)" d="M8,4.9c1.5,0,2.7,1.2,2.7,2.7c0,1.2-0.9,2.3-2.1,2.6l-0.4,0.1v0.4v0.5H7.8v-0.5v-0.4l-0.4-0.1
		C6.2,9.9,5.3,8.8,5.3,7.6C5.3,6.1,6.5,4.9,8,4.9 M8,9.8c1.2,0,2.3-1,2.3-2.3S9.2,5.3,8,5.3s-2.3,1-2.3,2.3S6.8,9.8,8,9.8 M8,4.4
		c-1.7,0-3.2,1.4-3.2,3.2c0,1.5,1,2.7,2.4,3.1v0.9c0,0-0.1,0-0.1,0h1.6c0,0-0.1,0-0.1,0v-0.9c1.4-0.3,2.5-1.6,2.5-3.1
		C11.2,5.8,9.7,4.4,8,4.4L8,4.4z M8,9.3c-1,0-1.8-0.8-1.8-1.8c0-1,0.8-1.8,1.8-1.8s1.8,0.8,1.8,1.8C9.8,8.5,9,9.3,8,9.3L8,9.3z"/>
</g>
</svg>
